<?xml version="1.0" standalone="no"?>
<!DOCTYPE svg PUBLIC "-//W3C//DTD SVG 20010904//EN"
 "http://www.w3.org/TR/2001/REC-SVG-20010904/DTD/svg10.dtd">
<svg version="1.0" xmlns="http://www.w3.org/2000/svg"
 width="1026.000000pt" height="1028.000000pt" viewBox="0 0 1026.000000 1028.000000"
 preserveAspectRatio="xMidYMid meet">

<g transform="translate(0.000000,1028.000000) scale(0.100000,-0.100000)"
fill="#000000" stroke="none">
<path d="M22 10245 l-22 -35 0 -5077 1 -5078 24 -28 24 -27 5084 0 5084 0 11
25 c6 14 16 25 22 25 7 0 10 1631 10 5085 0 3180 -4 5085 -9 5085 -6 0 -18 14
-28 30 l-17 30 -5081 0 -5080 0 -23 -35z m2522 -1051 c9 -3 25 -21 36 -39 20
-32 20 -44 20 -2500 0 -2345 -1 -2468 -17 -2481 -10 -8 -27 -16 -38 -19 -11
-3 -254 -4 -539 -3 l-519 3 -21 28 -21 28 -3 1957 c-2 1076 0 2188 4 2469 l6
513 24 25 23 25 515 0 c283 0 521 -3 530 -6z m2317 -23 l29 -29 0 -2071 c0
-1312 4 -2079 10 -2095 l9 -26 1188 -2 1188 -3 46 -27 c197 -116 202 -433 9
-611 -64 -60 -150 -108 -236 -134 -55 -17 -169 -18 -1797 -21 l-1738 -2 -31
31 -31 31 6 216 c4 119 7 277 7 350 0 185 -22 172 283 172 235 0 245 1 263 21
19 21 19 74 24 2106 l5 2085 24 19 c22 18 43 19 368 19 l345 0 29 -29z m2062
18 c657 -58 1155 -301 1521 -739 186 -223 321 -506 378 -795 32 -160 32 -425
-1 -580 -63 -300 -169 -508 -365 -713 l-51 -53 50 -42 c361 -299 595 -671 690
-1092 151 -675 -14 -1354 -457 -1878 -369 -436 -871 -724 -1428 -817 -208 -35
-316 -40 -890 -40 l-569 0 -21 27 c-21 26 -21 33 -18 400 3 372 3 372 26 395
l23 23 647 6 c548 5 658 8 722 22 110 25 175 45 268 83 445 184 762 559 869
1029 21 91 25 136 26 260 0 152 -7 205 -45 350 -72 280 -243 521 -483 682 -86
58 -166 96 -275 131 -167 53 -213 57 -605 57 -452 0 -451 0 -1103 -137 -29 -6
-56 -8 -60 -4 -4 4 -7 768 -7 1698 l0 1690 28 24 28 24 490 0 c271 0 545 -5
612 -11z m-2046 -5922 c17 -16 18 -49 21 -401 l3 -384 -27 -21 -27 -21 -1678
0 -1678 0 -20 29 c-20 28 -21 41 -21 396 l0 367 29 29 30 29 1675 -2 c1593 -3
1676 -4 1693 -21z m-1720 -1797 c77 -36 141 -98 178 -176 25 -50 29 -72 29
-144 1 -72 -3 -94 -25 -141 -36 -76 -86 -129 -161 -170 -60 -33 -67 -34 -168
-34 -92 0 -112 4 -162 27 -71 33 -138 100 -175 176 -24 49 -28 68 -27 137 1
101 29 176 89 242 104 117 276 150 422 83z m981 8 c63 -24 122 -76 122 -109 0
-25 -53 -89 -73 -89 -7 0 -39 14 -71 30 -172 88 -337 -26 -297 -204 13 -59 41
-91 108 -125 69 -34 134 -23 210 35 31 23 36 24 56 11 37 -24 77 -69 77 -85 0
-9 -22 -37 -50 -63 -63 -61 -129 -83 -239 -77 -139 7 -252 81 -307 202 -56
121 -30 282 61 383 101 113 251 147 403 91z m-2118 -14 c24 -24 25 -28 26
-177 0 -83 1 -189 2 -234 l2 -83 146 0 c80 0 154 -5 165 -10 30 -17 51 -65 40
-93 -21 -53 -38 -57 -267 -57 l-213 0 -21 27 c-21 27 -21 34 -18 316 l3 289
33 29 c38 34 61 32 102 -7z m2887 14 c26 -29 48 -72 132 -265 38 -87 83 -189
101 -228 56 -121 50 -166 -27 -181 -27 -5 -34 -1 -65 38 -20 23 -41 53 -47 66
-11 21 -17 22 -131 22 l-119 0 -31 -45 c-62 -90 -105 -108 -150 -60 -31 33
-25 59 50 230 184 418 199 445 239 445 16 0 36 -9 48 -22z m1827 12 c138 -22
205 -152 145 -278 -22 -44 -22 -44 -2 -70 38 -52 53 -91 53 -142 0 -77 -33
-126 -109 -165 -28 -14 -71 -19 -206 -23 -170 -5 -172 -5 -193 18 -26 28 -25
7 -22 345 1 151 6 278 12 288 5 10 19 22 31 27 30 12 218 12 291 0z m615 -16
l31 -26 0 -297 0 -298 -25 -27 c-33 -36 -79 -33 -109 7 -20 27 -21 43 -24 290
-2 144 -1 276 3 293 7 39 47 84 74 84 11 0 33 -12 50 -26z m892 -3 c16 -16 29
-36 29 -44 0 -9 -39 -66 -87 -127 -150 -191 -243 -314 -243 -322 0 -5 68 -8
150 -8 147 0 152 -1 175 -25 35 -34 34 -86 -1 -114 -25 -20 -39 -21 -284 -21
-284 0 -282 0 -296 66 -5 27 7 46 106 174 61 80 138 178 170 218 33 40 60 75
60 78 0 3 -53 5 -117 4 -65 -2 -130 -2 -145 -1 -62 3 -90 81 -46 128 21 23 24
23 261 23 l239 0 29 -29z m-2650 -7 c24 -25 24 -28 27 -260 l3 -234 143 0
c130 0 146 -2 170 -21 40 -32 51 -57 35 -86 -26 -48 -52 -53 -267 -53 -182 0
-202 2 -223 19 l-24 19 1 296 0 296 24 25 c32 34 79 34 111 -1z"/>
<path d="M6592 7533 l3 -828 410 -3 c267 -2 433 1 477 9 104 17 200 68 277
148 80 82 124 153 162 265 122 353 -6 761 -309 984 -242 180 -495 252 -879
252 l-143 0 2 -827z"/>
<path d="M2898 1311 c-67 -43 -95 -105 -82 -187 9 -61 40 -104 99 -136 78 -43
157 -33 225 28 46 42 64 89 58 155 -14 141 -178 217 -300 140z"/>
<path d="M4857 1203 c-4 -3 -7 -15 -7 -25 0 -10 -9 -36 -20 -58 -11 -22 -20
-42 -20 -45 0 -10 99 -5 105 5 4 6 -1 33 -10 59 -16 50 -36 76 -48 64z"/>
<path d="M6570 1285 l0 -57 71 4 c56 3 74 8 86 23 12 18 11 61 -3 75 -3 2 -39
6 -80 8 l-74 4 0 -57z"/>
<path d="M6570 1030 l0 -60 83 0 c95 0 107 7 107 62 0 49 -18 58 -114 58 l-76
0 0 -60z"/>
</g>
</svg>
