<?xml version="1.0" standalone="no"?>
<!DOCTYPE svg PUBLIC "-//W3C//DTD SVG 20010904//EN"
 "http://www.w3.org/TR/2001/REC-SVG-20010904/DTD/svg10.dtd">
<svg version="1.0" xmlns="http://www.w3.org/2000/svg"
 width="200.000000pt" height="200.000000pt" viewBox="0 0 200.000000 200.000000"
 preserveAspectRatio="xMidYMid meet">

<g transform="translate(0.000000,200.000000) scale(0.100000,-0.100000)"
fill="#000000" stroke="none">
<path d="M1450 1270 l0 -260 260 0 260 0 0 260 0 260 -260 0 -260 0 0 -260z"/>
<path d="M998 1259 l-418 -261 0 -260 c0 -215 2 -258 13 -251 8 4 197 122 420
262 l407 255 0 258 c0 142 -1 258 -2 258 -2 0 -191 -118 -420 -261z"/>
<path d="M260 1137 l-195 -122 247 -3 248 -2 187 116 c104 65 192 121 197 126
6 4 -102 8 -240 8 l-249 0 -195 -123z"/>
<path d="M30 730 l0 -260 260 0 260 0 0 260 0 260 -260 0 -260 0 0 -260z"/>
<path d="M1241 867 l-194 -122 248 -3 248 -2 194 120 c106 67 193 123 193 126
0 2 -111 4 -247 3 l-248 0 -194 -122z"/>
</g>
</svg>
