<svg xmlns="http://www.w3.org/2000/svg" xmlns:xlink="http://www.w3.org/1999/xlink" width="1812" zoomAndPan="magnify" viewBox="0 0 1359 353.999987" height="472" preserveAspectRatio="xMidYMid meet" version="1.0"><path fill="#074173" d="M 28.527344 20.273438 C 26.898438 23.332031 27.101562 250.832031 28.730469 252.464844 C 30.566406 254.296875 78.753906 254.195312 80.285156 252.363281 C 81.710938 250.730469 81.8125 24.351562 80.386719 20.785156 L 79.46875 18.339844 L 54.609375 18.339844 C 30.972656 18.339844 29.546875 18.441406 28.527344 20.273438 Z M 28.527344 20.273438 " fill-opacity="1" fill-rule="nonzero"/><path fill="#074173" d="M 152.621094 18.542969 C 152.417969 18.746094 152.109375 63.269531 151.804688 117.671875 L 151.296875 216.5 L 138.558594 217.007812 L 125.824219 217.519531 L 125.113281 221.59375 C 123.890625 228.726562 124.195312 251.140625 125.519531 252.464844 C 126.4375 253.378906 146.304688 253.6875 208.554688 253.6875 C 288.328125 253.6875 290.464844 253.6875 295.867188 251.648438 C 308.601562 246.859375 314.613281 231.679688 307.378906 222.511719 C 303.101562 216.90625 302.996094 216.90625 244.3125 217.007812 C 214.5625 217.109375 189.808594 216.703125 189.398438 216.296875 C 188.890625 215.785156 188.378906 171.160156 188.277344 117.164062 L 187.972656 18.847656 L 170.449219 18.542969 C 160.769531 18.441406 152.722656 18.441406 152.621094 18.542969 Z M 152.621094 18.542969 " fill-opacity="1" fill-rule="nonzero"/><path fill="#074173" d="M 230.867188 19.867188 C 230.558594 20.785156 230.253906 56.851562 230.253906 99.945312 C 230.253906 161.992188 230.558594 178.292969 231.578125 178.292969 C 232.191406 178.292969 239.421875 176.867188 247.574219 175.136719 C 266.421875 171.160156 294.132812 169.9375 306.664062 172.589844 C 317.566406 174.828125 327.449219 180.023438 334.480469 187.15625 C 342.425781 195.207031 345.277344 199.6875 348.234375 208.757812 C 359.949219 245.230469 338.046875 283.742188 299.941406 293.421875 C 293.011719 295.253906 288.632812 295.457031 262.753906 295.457031 C 237.285156 295.457031 233.207031 295.660156 231.78125 297.085938 C 230.457031 298.515625 230.253906 301.265625 230.457031 316.140625 L 230.761719 333.664062 L 263.875 333.664062 C 298.921875 333.664062 300.042969 333.5625 316.34375 328.367188 C 345.378906 318.992188 370.445312 296.679688 382.464844 269.171875 C 388.78125 254.601562 390.515625 246.042969 390.515625 229.234375 C 390.515625 211.914062 388.578125 202.746094 382.058594 188.789062 C 376.761719 177.476562 370.546875 168.921875 361.683594 160.769531 C 357.808594 157.101562 354.550781 153.535156 354.550781 152.925781 C 354.550781 152.3125 356.382812 149.765625 358.523438 147.421875 C 364.023438 141.414062 370.238281 129.289062 372.378906 120.324219 C 374.417969 111.96875 374.722656 97.296875 372.992188 88.839844 C 370.136719 74.476562 361.476562 58.886719 349.964844 47.273438 C 339.980469 37.1875 329.589844 30.257812 317.972656 25.878906 C 301.367188 19.664062 296.988281 19.050781 262.753906 18.644531 C 234.429688 18.238281 231.476562 18.339844 230.867188 19.867188 Z M 298.414062 59.195312 C 310.332031 62.453125 319.300781 68.363281 326.125 77.429688 C 331.015625 83.949219 334.683594 96.890625 333.765625 104.9375 C 332.339844 118.386719 327.042969 127.761719 318.179688 132.140625 C 312.371094 134.992188 311.964844 134.992188 290.976562 135.300781 C 274.164062 135.605469 269.480469 135.402344 268.867188 134.28125 C 267.746094 132.648438 267.644531 57.664062 268.765625 56.542969 C 270.089844 55.21875 290.464844 56.953125 298.414062 59.195312 Z M 298.414062 59.195312 " fill-opacity="1" fill-rule="nonzero"/><path fill="#074173" d="M 29.546875 296.476562 C 28.324219 297.191406 27.917969 300.449219 27.714844 312.269531 C 27.507812 320.519531 27.609375 328.773438 28.019531 330.707031 L 28.628906 334.171875 L 108.300781 333.96875 L 187.972656 333.664062 L 188.277344 315.425781 C 188.484375 301.46875 188.175781 296.984375 187.261719 296.273438 C 185.324219 295.152344 31.378906 295.253906 29.546875 296.476562 Z M 29.546875 296.476562 " fill-opacity="1" fill-rule="nonzero"/><path fill="#074173" d="M 562.640625 136.054688 C 539.191406 147.78125 529.570312 181.453125 543.398438 204.003906 C 551.816406 217.535156 573.164062 227.453125 589.097656 225.351562 C 628.785156 219.9375 646.222656 177.847656 620.667969 148.984375 C 603.832031 129.742188 584.289062 125.53125 562.640625 136.054688 Z M 603.832031 159.808594 C 617.960938 173.9375 614.054688 194.984375 595.714844 203.703125 C 577.976562 212.121094 559.9375 201.296875 556.328125 180.253906 C 554.824219 170.933594 556.027344 168.226562 563.84375 160.109375 C 576.472656 147.78125 591.503906 147.480469 603.832031 159.808594 Z M 603.832031 159.808594 " fill-opacity="1" fill-rule="nonzero"/><path fill="#074173" d="M 705.753906 133.351562 C 681.097656 143.273438 668.472656 174.238281 678.695312 198.894531 C 683.203125 210.015625 701.542969 222.945312 715.675781 225.351562 C 728.300781 227.152344 745.136719 222.34375 752.355469 214.226562 C 757.464844 208.511719 757.464844 207.914062 752.65625 202.5 C 747.84375 197.089844 747.242188 197.089844 736.117188 202.800781 C 728.902344 206.410156 721.6875 207.914062 716.875 206.710938 C 695.53125 201.296875 688.015625 171.832031 704.25 157.703125 C 712.96875 150.1875 720.785156 149.886719 745.136719 155.898438 C 750.851562 157.101562 753.554688 156.199219 755.058594 152.292969 C 760.472656 138.160156 726.796875 124.933594 705.753906 133.351562 Z M 705.753906 133.351562 " fill-opacity="1" fill-rule="nonzero"/><path fill="#074173" d="M 837.4375 135.152344 C 829.320312 144.171875 801.960938 207.3125 801.960938 216.933594 C 801.960938 227.453125 808.578125 227.753906 816.996094 217.832031 C 824.210938 208.8125 826.316406 208.214844 843.453125 208.214844 C 853.675781 208.214844 862.09375 209.414062 862.09375 210.617188 C 862.09375 215.730469 874.417969 225.953125 878.628906 224.449219 C 885.84375 221.441406 884.039062 214.226562 866.300781 174.839844 C 846.457031 130.945312 844.054688 127.636719 837.4375 135.152344 Z M 849.765625 178.449219 C 851.570312 183.859375 853.074219 188.671875 853.074219 188.972656 C 853.074219 189.574219 848.863281 190.171875 844.054688 190.171875 C 835.636719 190.171875 835.035156 189.574219 836.835938 181.753906 C 840.746094 165.820312 844.957031 164.617188 849.765625 178.449219 Z M 849.765625 178.449219 " fill-opacity="1" fill-rule="nonzero"/><path fill="#074173" d="M 1239.113281 134.253906 C 1234.601562 137.859375 1234 139.664062 1236.707031 144.171875 C 1239.414062 148.382812 1244.523438 149.886719 1260.15625 150.488281 C 1270.980469 151.089844 1280 152.292969 1280 153.191406 C 1280 154.09375 1275.792969 159.808594 1270.679688 165.820312 C 1250.835938 189.273438 1234.902344 212.722656 1235.503906 217.234375 C 1237.007812 224.148438 1307.359375 225.652344 1313.074219 218.734375 C 1320.289062 210.015625 1311.570312 205.207031 1288.71875 205.207031 C 1277.296875 205.207031 1267.976562 204.003906 1267.976562 202.800781 C 1267.976562 199.191406 1284.210938 176.945312 1298.640625 160.410156 C 1310.667969 146.578125 1312.472656 139.664062 1306.457031 133.652344 C 1301.046875 128.238281 1246.628906 128.839844 1239.113281 134.253906 Z M 1239.113281 134.253906 " fill-opacity="1" fill-rule="nonzero"/><path fill="#074173" d="M 434.261719 135.152344 C 431.855469 139.363281 428.550781 210.917969 430.65625 216.933594 C 432.457031 222.644531 434.863281 223.246094 464.027344 223.246094 C 489.28125 223.246094 495.894531 222.34375 497.097656 218.734375 C 500.707031 209.414062 492.589844 205.207031 470.941406 205.207031 L 450.195312 205.207031 L 450.195312 173.9375 C 450.195312 156.800781 449.296875 140.566406 448.394531 137.859375 C 446.589844 133.050781 436.667969 131.246094 434.261719 135.152344 Z M 434.261719 135.152344 " fill-opacity="1" fill-rule="nonzero"/><path fill="#074173" d="M 928.535156 137.257812 C 926.132812 139.964844 925.230469 154.394531 925.832031 181.453125 L 926.734375 221.742188 L 956.796875 222.644531 C 989.570312 223.246094 997.988281 220.839844 992.578125 212.121094 C 989.871094 207.914062 984.457031 206.410156 967.621094 205.808594 L 946.277344 204.90625 L 946.277344 174.839844 C 946.277344 158.304688 944.773438 142.070312 943.269531 138.761719 C 939.359375 132.148438 933.347656 131.246094 928.535156 137.257812 Z M 928.535156 137.257812 " fill-opacity="1" fill-rule="nonzero"/><path fill="#074173" d="M 1056.917969 172.734375 C 1056.316406 194.683594 1056.316406 215.128906 1056.917969 217.832031 C 1058.117188 222.34375 1061.726562 223.246094 1082.171875 223.246094 C 1106.824219 223.246094 1121.257812 218.734375 1124.863281 209.714844 C 1127.871094 201.296875 1126.96875 191.675781 1121.554688 184.460938 C 1117.648438 178.449219 1117.347656 175.742188 1120.355469 167.625 C 1122.757812 160.410156 1122.757812 155.597656 1120.65625 149.585938 C 1115.542969 135.753906 1109.230469 133.351562 1082.773438 133.050781 L 1058.117188 133.050781 Z M 1101.113281 160.109375 C 1101.113281 166.722656 1099.609375 167.625 1089.6875 168.527344 C 1081.871094 169.128906 1077.960938 168.226562 1076.757812 164.917969 C 1073.152344 155.597656 1077.960938 150.789062 1089.6875 151.691406 C 1099.609375 152.59375 1101.113281 153.492188 1101.113281 160.109375 Z M 1099.007812 187.167969 C 1104.417969 187.167969 1105.621094 188.972656 1105.621094 195.886719 C 1105.621094 203.402344 1104.417969 204.605469 1094.796875 206.109375 C 1080.367188 208.511719 1075.554688 206.109375 1075.554688 196.488281 C 1075.554688 186.265625 1078.261719 183.257812 1086.078125 185.363281 C 1089.386719 186.265625 1095.097656 187.167969 1099.007812 187.167969 Z M 1099.007812 187.167969 " fill-opacity="1" fill-rule="nonzero"/><path fill="#074173" d="M 1173.871094 135.152344 C 1172.667969 136.054688 1171.765625 155.597656 1171.765625 178.148438 C 1171.765625 211.21875 1172.667969 220.238281 1176.277344 223.246094 C 1179.882812 226.253906 1181.6875 226.253906 1185.296875 223.246094 C 1188.902344 220.238281 1189.804688 211.519531 1189.804688 181.152344 C 1189.804688 159.808594 1188.902344 140.566406 1188 137.859375 C 1186.195312 133.050781 1177.476562 131.246094 1173.871094 135.152344 Z M 1173.871094 135.152344 " fill-opacity="1" fill-rule="nonzero"/></svg>